<svg xmlns="http://www.w3.org/2000/svg" viewBox="0 0 180 30" width="180" height="30" alt="Udacity">
  <g fill="none" fill-rule="evenodd">
    <path id="wordmark" fill="#2e3d49" d="M 57.6 17.2392 c 0 2.5467 -2.08552 4.40775 -4.96552 4.40775 c -2.88 0 -4.96552 -1.86105 -4.96552 -4.40775 V 7.83599 H 45.6828 v 9.50114 c 0 3.3303 2.88 6.17085 6.95172 6.17085 c 4.07172 0 6.95172 -2.9385 6.95172 -6.17085 V 7.83599 H 57.6 v 9.40319 Z m 16.2869 -9.40319 h -5.36276 v 15.672 h 5.36276 c 4.46897 0 7.54759 -3.03645 7.54759 -7.836 c 0 -4.7016 -3.07862 -7.83599 -7.54759 -7.83599 Z m -0.19862 13.713 h -3.17793 V 9.79499 h 3.17793 c 3.37655 0 5.76 2.25285 5.76 5.87699 c 0 3.918 -2.48276 5.77905 -5.76 5.877 Z m 43.4979 0.29385 c -3.57517 0 -5.95862 -2.64465 -5.95862 -6.17085 c 0 -3.5262 2.48276 -6.0729 5.95862 -6.0729 c 2.78069 0 4.46897 1.5672 4.46897 1.5672 l 0.794483 -1.3713 s -1.78759 -1.86105 -5.46207 -1.86105 c -4.7669 0 -7.74621 3.5262 -7.74621 7.73805 c 0 4.3098 3.07862 7.93395 7.94483 7.93395 c 3.77379 0 5.66069 -2.5467 5.66069 -2.5467 l -1.09241 -1.1754 c -0.09931 -0.09795 -1.58897 1.959 -4.56828 1.959 Z m 14.8966 -14.0068 h 1.98621 v 15.672 h -1.98621 Z m 10.9241 1.959 h 4.96552 v 13.713 h 1.98621 V 9.79499 h 4.96552 v -1.959 H 143.007 m 30.5876 0 l -4.7669 7.15034 l -4.86621 -7.15035 h -2.08552 l 5.95862 8.71755 v 6.95444 h 1.98621 v -6.95444 l 5.85931 -8.71754 m -81.4345 0 l -6.15724 15.672 h 1.98621 l 1.68828 -4.5057 l 6.45517 -1.3713 l 2.18483 5.877 h 1.9862 l -6.05793 -15.672 h -2.08552 Z m -1.8869 9.30524 l 2.97931 -7.24829 h 0.099315 L 97.92 16.0638 l -5.56138 1.07745 Z" />
    <path id="mark" fill="#02b3e4" d="M 29 0.5 l 1 0.5 v 13 c 0 5.55189 -2.8897 8.69569 -5.99522 10.0999 L 24.0094 24.1 l -7.62096 4.38856 c -0.05877 0.03456 -0.11776 0.068527 -0.176957 0.101902 l -0.08642 0.049764 l 0.001806 -0.00254 C 14.4829 29.5459 12.6847 30 11 30 C 6 30 0 26 0 18 V 6 l 2 1 v 11 c 0 8 6 10 9 10 c 1.85871 0 4.86901 -0.76773 6.89043 -3.25452 C 14.1817 23.8726 10 20.6787 10 14 V 2.2 L 2 7 L 0 6 l 10 -6 l 1 0.5 l 1 0.5 v 13 c 0 6.93996 4.51528 8.61209 7.01754 8.93337 C 19.6258 21.6216 20 19.9979 20 18 V 5 l 2 1 v 12 c 0 1.85265 -0.321777 3.49077 -0.878395 4.91438 C 23.6482 22.5492 28 20.8131 28 14 V 2.25 L 22 6 l -2 -1 l 8 -5 l 1 0.5 Z" />
  </g>
</svg>